
		<svg xmlns="http://www.w3.org/2000/svg" xmlns:xlink="http://www.w3.org/1999/xlink" version="1.1" width="3240.9638554216867" height="2397.5903614457834">
			
			<g transform="scale(12.048192771084338) translate(10, 10)">
				<defs id="SvgjsDefs1149"/><g id="SvgjsG1150" featureKey="root" fill="#fff" transform="matrix(1,0,0,1,NaN,NaN)"/><g id="SvgjsG1151" featureKey="symbol1" fill="#fff" transform="matrix(0.9186459183692932,0,0,0.9186459183692932,78.44270557481184,-6.5572944251881635)"><g><path d="M50,92.862C26.365,92.862,7.138,73.634,7.138,50C7.138,26.366,26.365,7.138,50,7.138c23.635,0,42.862,19.228,42.862,42.861   C92.862,73.634,73.635,92.862,50,92.862z M50,11.138c-21.429,0-38.862,17.434-38.862,38.861c0,21.429,17.433,38.862,38.862,38.862   S88.862,71.428,88.862,50C88.862,28.572,71.428,11.138,50,11.138z"/><circle cx="50" cy="23.668" r="4.44"/><circle cx="37.544" cy="27.926" r="4.44"/><circle cx="62.456" cy="27.926" r="4.44"/><path d="M50,85.049c1.9,0,3.763-0.157,5.582-0.45L50,33.063l-5.582,51.537C46.237,84.892,48.1,85.049,50,85.049z"/><path d="M29.959,78.729L35.375,36L20.957,69.6C23.372,73.167,26.431,76.261,29.959,78.729z"/><path d="M70.041,78.729L64.625,36l14.418,33.6C76.628,73.167,73.569,76.261,70.041,78.729z"/></g></g><g id="SvgjsG1152" featureKey="text1" fill="#fff" transform="matrix(4.255317687988281,0,0,4.255317687988281,-3.4042510594912687,66.44682117448542)"><path d="M8.66 23.82 c0.02 0.08 0.04 0.18 -0.06 0.18 l-0.64 0 c-0.22 0 -0.32 -0.2 -0.32 -0.48 l0 -1.2 c-0.62 1.04 -1.56 1.78 -3.02 1.78 l-0.92 0 c-1.8 0 -2.9 -1 -2.9 -2.98 c0 -2 1.14 -2.88 2.86 -2.88 l3.98 0 l0 -0.62 c0 -2.14 -0.52 -2.76 -2.44 -2.76 l-0.38 0 c-1.06 0 -1.78 0.18 -2.48 0.54 c-0.18 0.1 -0.36 0.14 -0.42 -0.02 l-0.22 -0.42 c-0.06 -0.12 -0.04 -0.22 0.16 -0.34 c0.8 -0.52 1.86 -0.7 2.96 -0.7 l0.38 0 c2.48 0 3.42 1.14 3.42 3.68 l0 5.92 c0 0.1 0.02 0.22 0.04 0.3 z M4.54 23.14 c1.62 0 2.68 -0.9 3.1 -2.22 l0 -1.78 l-3.94 0 c-1.24 0 -1.92 0.48 -1.92 1.98 s0.68 2.02 1.92 2.02 l0.84 0 z M23.18 14 c0.2 0 0.3 0.12 0.24 0.34 l-2.72 9.3 c-0.06 0.22 -0.26 0.36 -0.44 0.36 l-0.44 0 c-0.16 0 -0.38 -0.14 -0.42 -0.36 c-0.78 -2.58 -1.66 -5.16 -2.44 -8.18 c-0.78 3.02 -1.64 5.6 -2.42 8.18 c-0.06 0.22 -0.26 0.36 -0.44 0.36 l-0.44 0 c-0.16 0 -0.38 -0.14 -0.42 -0.36 l-2.74 -9.3 c-0.06 -0.22 0.04 -0.34 0.24 -0.34 l0.42 0 c0.2 0 0.3 0.12 0.36 0.34 c0.78 2.76 1.46 5.6 2.38 8.46 c0.92 -2.86 1.74 -5.7 2.52 -8.46 c0.06 -0.22 0.16 -0.34 0.36 -0.34 l0.38 0 c0.2 0 0.3 0.12 0.36 0.34 c0.78 2.76 1.6 5.6 2.52 8.46 c0.9 -2.86 1.58 -5.7 2.36 -8.46 c0.06 -0.22 0.16 -0.34 0.36 -0.34 l0.42 0 z M29.3 13.92 c1.72 0 3.48 1.28 3.48 3.62 l0 1.26 c0 0.38 -0.26 0.62 -0.66 0.62 l-6.06 0 l0 1.18 c0 1.62 0.92 2.54 2.58 2.54 l0.66 0 c1.4 0 1.78 -0.58 2.4 -1.32 c0.14 -0.16 0.22 -0.2 0.42 -0.06 l0.26 0.18 c0.2 0.14 0.18 0.26 0.06 0.42 c-0.72 0.88 -1.44 1.74 -3.14 1.74 l-0.66 0 c-2.1 0 -3.6 -1.32 -3.6 -3.56 l0 -2.98 c0 -2.38 1.5 -3.64 3.6 -3.64 l0.66 0 z M31.76 18.52 l0 -0.9 c0 -1.86 -1.06 -2.76 -2.46 -2.76 l-0.66 0 c-1.66 0 -2.58 0.9 -2.58 2.74 l0 0.92 l5.7 0 z M39.12 13.92 c2.38 0 3.18 1.2 3.18 3.54 l0 6.24 c0 0.2 -0.1 0.3 -0.3 0.3 l-0.38 0 c-0.2 0 -0.3 -0.1 -0.3 -0.3 l0 -6.18 c0 -1.74 -0.4 -2.66 -2.18 -2.66 l-0.34 0 c-1.66 0 -2.62 1.04 -2.94 1.58 l0 7.26 c0 0.2 -0.1 0.3 -0.3 0.3 l-0.38 0 c-0.2 0 -0.3 -0.1 -0.3 -0.3 l0 -9.4 c0 -0.2 0.1 -0.3 0.3 -0.3 l0.38 0 c0.2 0 0.3 0.1 0.3 0.3 l0 1.26 c0.78 -1.12 1.9 -1.64 3.1 -1.64 l0.16 0 z  M44.2 22.6 c0 -0.2 0.1 -0.3 0.3 -0.3 l1.04 0 c0.2 0 0.3 0.1 0.3 0.3 l0 1.1 c0 0.2 -0.1 0.3 -0.3 0.3 l-1.04 0 c-0.2 0 -0.3 -0.1 -0.3 -0.3 l0 -1.1 z M47.98 10.3 c0 -0.2 0.1 -0.3 0.3 -0.3 l0.32 0 c0.2 0 0.3 0.1 0.3 0.3 l0 0.44 c0 0.2 -0.1 0.3 -0.3 0.3 l-0.32 0 c-0.2 0 -0.3 -0.1 -0.3 -0.3 l0 -0.44 z M47.94 14.3 c0 -0.2 0.1 -0.3 0.3 -0.3 l0.38 0 c0.2 0 0.3 0.1 0.3 0.3 l0 9.4 c0 0.2 -0.1 0.3 -0.3 0.3 l-0.38 0 c-0.2 0 -0.3 -0.1 -0.3 -0.3 l0 -9.4 z M55.64 13.92 c2.12 0 3.58 1.26 3.58 3.64 l0 2.86 c0 2.34 -1.46 3.68 -3.58 3.68 l-0.86 0 c-2.1 0 -3.56 -1.34 -3.56 -3.68 l0 -2.86 c0 -2.38 1.46 -3.64 3.56 -3.64 l0.86 0 z M58.22 20.5 l0 -2.88 c0 -1.86 -0.9 -2.76 -2.58 -2.76 l-0.86 0 c-1.66 0 -2.58 0.9 -2.58 2.76 l0 2.88 c0 1.72 0.92 2.64 2.58 2.64 l0.86 0 c1.68 0 2.58 -0.92 2.58 -2.64 z"/></g>
			</g>
		</svg>
	